<svg width="81" height="54" viewBox="0 0 81 54" fill="none" xmlns="http://www.w3.org/2000/svg">
<rect width="81" height="54" fill="white"/>
<path d="M14 19C12.8954 19 12 19.8954 12 21C12 22.1046 12.8954 23 14 23V19ZM68 23C69.1046 23 70 22.1046 70 21C70 19.8954 69.1046 19 68 19V23ZM14 23H41V19H14V23ZM41 23H68V19H41V23Z" fill="black"/>
<path d="M14 31.5C12.8954 31.5 12 32.3954 12 33.5C12 34.6046 12.8954 35.5 14 35.5V31.5ZM68 35.5C69.1046 35.5 70 34.6046 70 33.5C70 32.3954 69.1046 31.5 68 31.5V35.5ZM14 35.5H41V31.5H14V35.5ZM41 35.5H68V31.5H41V35.5Z" fill="black"/>
</svg>
